<svg id="Layer_1" data-name="Layer 1" xmlns="http://www.w3.org/2000/svg" viewBox="0 0 127 48"><defs><style>.cls-1{fill:#ffa412;}.cls-2{fill:#ff7e1d;}.cls-3{fill:#64abda;}.cls-4{fill:#b9bf33;}</style></defs><title>Website-Logos-Icons</title><g id="logo"><path class="cls-1" d="M21.62,22.18A7.69,7.69,0,0,0,15,18.71c-2.26,0-4.94,1.06-4.94,3.6,0,6.07,18.29,1.13,18.29,14.34,0,8.05-7.7,10.87-14.62,10.87C8.48,47.53,4,46.19.5,42.31L6.15,37c2.19,2.41,4.45,4.17,8.05,4.17,2.47,0,5.65-1.2,5.65-3.88,0-7-18.29-1.49-18.29-14.41,0-7.56,6.78-10.95,13.63-10.95,4.52,0,9.32,1.41,12.08,5.15Z"/><path class="cls-2" d="M46.23,1.69l-.12,10.44h9.33v7.32H45.77V34.54c0,3.45,1,5.61,4.91,5.61a9.32,9.32,0,0,0,4.76-1.08v7.26a18.86,18.86,0,0,1-7,1.15C39.17,47.47,37,43.38,37,35.26V19.46H29.72V12.14H38L37.81,1.69Z"/><path class="cls-3" d="M80.94,23c-1.95-2-4.11-3.35-6.34-3.35-6.14,0-9.83,4.81-9.83,10s3.69,10,9.83,10a8,8,0,0,0,6.48-3.13l5.58,6C83.24,46,77.52,47.28,74.6,47.28c-10.12,0-18.2-7-18.2-17.57s8.08-17.57,18.2-17.57a16.35,16.35,0,0,1,12.13,5.09Z"/><path class="cls-4" d="M122.61,14.31V46.86H114v-5.8h-.15c-1.66,3.61-5.06,6.7-11.08,6.7-9.72,0-13.19-6.86-13.19-14.23V15.15l9,4.3V29c0,4,.3,10.62,6.63,10.62,6,0,8.29-4.37,8.29-9.19l0-10,3-1.17V16.34Z"/><polygon class="cls-2" points="109.9 16.03 100.84 8.87 102.87 8.39 117.04 13.69 117.04 13.72 126.5 10.64 103.73 0.24 80.17 7.93 102.27 18.55 109.9 16.06 109.9 16.03"/><polygon class="cls-2" points="115.15 18.16 115.14 14.38 104.34 10.2 111.75 15.5 111.73 19.3 115.15 18.16"/></g></svg>